<?xml version="1.0" standalone="no"?><!DOCTYPE svg PUBLIC "-//W3C//DTD SVG 1.1//EN" "http://www.w3.org/Graphics/SVG/1.1/DTD/svg11.dtd"><svg height="251" node-id="1" sillyvg="true" template-height="251" template-width="256" version="1.1" viewBox="0 0 256 251" width="256" xmlns="http://www.w3.org/2000/svg" xmlns:xlink="http://www.w3.org/1999/xlink"><defs node-id="236"></defs><g node-id="459"><path d="M 252.90 115.05 C 252.90 72.37 219.80 37.77 178.98 37.77 C 178.35 37.77 177.72 37.80 177.09 37.82 C 164.20 15.18 140.57 0.00 113.54 0.00 C 72.72 0.00 39.63 34.60 39.63 77.28 C 39.63 77.83 39.66 78.38 39.67 78.93 C 17.34 92.23 2.28 117.32 2.28 146.10 C 2.28 188.78 35.37 223.37 76.19 223.37 C 78.51 223.37 80.81 223.25 83.07 223.03 C 96.63 228.00 118.14 251.15 141.10 251.15 C 178.84 251.15 208.94 221.58 213.43 183.41 C 236.90 170.47 252.90 144.72 252.90 115.05 Z" fill="#e3f0f7" fill-rule="nonzero" group-id="1" node-id="239" stroke="none" target-height="251.15" target-width="250.62" target-x="2.28" target-y="0"></path></g><g node-id="460"><g node-id="462"><g node-id="481"><g node-id="490"><path d="M 137.22 117.93 C 137.22 120.31 135.28 122.25 132.91 122.25 L 30.12 122.25 C 27.75 122.25 25.80 120.31 25.80 117.93 L 25.80 45.38 C 25.80 43.00 27.75 41.06 30.12 41.06 L 132.91 41.06 C 135.28 41.06 137.22 43.00 137.22 45.38 L 137.22 117.93 L 137.22 117.93 Z" fill="#dae7f5" fill-rule="nonzero" group-id="2,4,23,32" node-id="249" stroke="none" target-height="81.19" target-width="111.42" target-x="25.8" target-y="41.06"></path><path d="M 132.91 123.75 L 30.12 123.75 C 26.91 123.75 24.30 121.14 24.30 117.93 L 24.30 45.38 C 24.30 42.17 26.91 39.56 30.12 39.56 L 132.91 39.56 C 136.12 39.56 138.72 42.17 138.72 45.38 L 138.72 117.93 C 138.72 121.14 136.12 123.75 132.91 123.75 Z M 30.12 42.56 C 28.57 42.56 27.30 43.82 27.30 45.38 L 27.30 117.93 C 27.30 119.49 28.57 120.75 30.12 120.75 L 132.91 120.75 C 134.46 120.75 135.72 119.48 135.72 117.93 L 135.72 45.38 C 135.72 43.82 134.46 42.56 132.91 42.56 L 30.12 42.56 Z" fill="#ccccde" fill-rule="nonzero" group-id="2,4,23,32" node-id="251" stroke="none" target-height="84.19" target-width="114.42" target-x="24.3" target-y="39.56"></path></g><g node-id="491"><path d="M 137.22 117.93 C 137.22 120.31 135.28 122.25 132.91 122.25 L 30.12 122.25 C 27.75 122.25 25.80 120.31 25.80 117.93 L 25.80 45.38 C 25.80 43.00 27.75 41.06 30.12 41.06 L 132.91 41.06 C 135.28 41.06 137.22 43.00 137.22 45.38 L 137.22 117.93 L 137.22 117.93 Z" fill="#ffffff" fill-rule="nonzero" group-id="2,4,23,33" node-id="256" stroke="none" target-height="81.19" target-width="111.42" target-x="25.8" target-y="41.06"></path><path d="M 132.91 122.75 L 30.12 122.75 C 27.46 122.75 25.30 120.59 25.30 117.93 L 25.30 45.38 C 25.30 42.72 27.46 40.56 30.12 40.56 L 132.91 40.56 C 135.56 40.56 137.72 42.72 137.72 45.38 L 137.72 117.93 C 137.72 120.59 135.56 122.75 132.91 122.75 Z M 30.12 41.56 C 28.02 41.56 26.30 43.27 26.30 45.38 L 26.30 117.93 C 26.30 120.04 28.02 121.75 30.12 121.75 L 132.91 121.75 C 135.01 121.75 136.72 120.04 136.72 117.93 L 136.72 45.38 C 136.72 43.27 135.01 41.56 132.91 41.56 L 30.12 41.56 Z" fill="#ccccde" fill-rule="nonzero" group-id="2,4,23,33" node-id="258" stroke="none" target-height="82.19" target-width="112.42" target-x="25.3" target-y="40.56"></path></g></g><g node-id="482"><path d="M 34.87 49.05 L 127.72 49.05 L 127.72 114.26 L 34.87 114.26 Z" fill="#dae7f5" fill-rule="nonzero" group-id="2,4,24" node-id="264" stroke="none" target-height="65.21001" target-width="92.850006" target-x="34.87" target-y="49.05"></path><path d="M 127.72 115.76 L 34.87 115.76 C 34.04 115.76 33.37 115.09 33.37 114.26 L 33.37 49.05 C 33.37 48.22 34.04 47.55 34.87 47.55 L 127.72 47.55 C 128.55 47.55 129.22 48.22 129.22 49.05 L 129.22 114.26 C 129.22 115.09 128.55 115.76 127.72 115.76 Z M 36.37 112.76 L 126.22 112.76 L 126.22 50.55 L 36.37 50.55 L 36.37 112.76 Z" fill="#ccccde" fill-rule="nonzero" group-id="2,4,24" node-id="266" stroke="none" target-height="68.21001" target-width="95.850006" target-x="33.37" target-y="47.55"></path></g></g><g node-id="463"><g node-id="483"><path d="M 128.59 214.34 C 128.59 217.09 126.33 219.34 123.58 219.34 L 23.24 219.34 C 20.49 219.34 18.24 217.09 18.24 214.34 L 18.24 150.77 C 18.24 148.02 20.49 145.77 23.24 145.77 L 123.59 145.77 C 126.34 145.77 128.59 148.02 128.59 150.77 L 128.59 214.34 L 128.59 214.34 Z" fill="#ffffff" fill-rule="nonzero" group-id="2,5,25" node-id="274" stroke="none" target-height="73.56999" target-width="110.35" target-x="18.24" target-y="145.77"></path><path d="M 123.58 220.84 L 23.24 220.84 C 19.66 220.84 16.74 217.92 16.74 214.34 L 16.74 150.77 C 16.74 147.19 19.66 144.27 23.24 144.27 L 123.59 144.27 C 127.17 144.27 130.09 147.19 130.09 150.77 L 130.09 214.33 C 130.09 217.92 127.17 220.84 123.58 220.84 Z M 23.24 147.27 C 21.31 147.27 19.74 148.84 19.74 150.77 L 19.74 214.33 C 19.74 216.26 21.31 217.83 23.24 217.83 L 123.59 217.83 C 125.52 217.83 127.09 216.26 127.09 214.33 L 127.09 150.77 C 127.09 148.84 125.52 147.27 123.59 147.27 L 23.24 147.27 Z" fill="#ccccde" fill-rule="nonzero" group-id="2,5,25" node-id="276" stroke="none" target-height="76.56999" target-width="113.35" target-x="16.74" target-y="144.27"></path></g><g node-id="484"><path d="M 28.75 154.75 L 118.08 154.75 L 118.08 208.61 L 28.75 208.61 Z" fill="#d3e3f5" fill-rule="nonzero" group-id="2,5,26" node-id="281" stroke="none" target-height="53.86" target-width="89.33" target-x="28.75" target-y="154.75"></path><path d="M 118.08 210.11 L 28.75 210.11 C 27.92 210.11 27.25 209.43 27.25 208.61 L 27.25 154.75 C 27.25 153.92 27.92 153.25 28.75 153.25 L 118.08 153.25 C 118.91 153.25 119.58 153.92 119.58 154.75 L 119.58 208.61 C 119.58 209.43 118.91 210.11 118.08 210.11 Z M 30.25 207.11 L 116.58 207.11 L 116.58 156.25 L 30.25 156.25 L 30.25 207.11 Z" fill="#ccccde" fill-rule="nonzero" group-id="2,5,26" node-id="283" stroke="none" target-height="56.86" target-width="92.33" target-x="27.25" target-y="153.25"></path></g><g node-id="485"><path d="M 135.15 219.34 C 135.15 219.34 135.15 222.09 135.15 225.47 C 135.15 228.84 132.20 231.59 128.59 231.59 L 19.55 231.59 C 15.94 231.59 12.98 228.84 12.98 225.47 C 12.98 222.09 12.98 219.34 12.98 219.34" fill="#ffffff" fill-rule="nonzero" group-id="2,5,27" node-id="288" stroke="none" target-height="12.25" target-width="122.17" target-x="12.98" target-y="219.34"></path><path d="M 128.59 233.09 L 19.55 233.09 C 15.10 233.09 11.48 229.67 11.48 225.46 L 11.48 219.33 C 11.48 218.51 12.15 217.83 12.98 217.83 L 135.15 217.83 C 135.98 217.83 136.65 218.51 136.65 219.33 L 136.65 225.46 C 136.65 229.67 133.03 233.09 128.59 233.09 Z M 14.48 220.84 L 14.48 225.47 C 14.48 228.02 16.76 230.09 19.55 230.09 L 128.59 230.09 C 131.38 230.09 133.65 228.02 133.65 225.47 L 133.65 220.84 L 14.48 220.84 Z" fill="#ccccde" fill-rule="nonzero" group-id="2,5,27" node-id="290" stroke="none" target-height="15.2599945" target-width="125.17" target-x="11.48" target-y="217.83"></path></g></g><g node-id="464"><g node-id="486"><path d="M 202.26 233.41 L 196.19 204.87 L 170.39 204.87 L 164.72 233.81" fill="#f0f0ff" fill-rule="nonzero" group-id="2,6,28" node-id="298" stroke="none" target-height="28.940002" target-width="37.539993" target-x="164.72" target-y="204.87"></path><path d="M 164.73 235.31 C 164.63 235.31 164.53 235.31 164.44 235.29 C 163.62 235.13 163.09 234.34 163.25 233.53 L 168.92 204.58 C 169.06 203.87 169.67 203.37 170.39 203.37 L 196.19 203.37 C 196.90 203.37 197.51 203.86 197.66 204.55 L 203.73 233.10 C 203.90 233.91 203.38 234.70 202.57 234.88 C 201.76 235.05 200.97 234.53 200.79 233.72 L 194.98 206.37 L 171.62 206.37 L 166.20 234.10 C 166.06 234.82 165.43 235.31 164.73 235.31 Z" fill="#ccccde" fill-rule="nonzero" group-id="2,6,28" node-id="300" stroke="none" target-height="31.940002" target-width="40.809998" target-x="163.09" target-y="203.37"></path></g><path d="M 209.32 235.31 L 157.66 235.31 C 156.83 235.31 156.16 234.64 156.16 233.81 C 156.16 232.99 156.83 232.31 157.66 232.31 L 209.32 232.31 C 210.15 232.31 210.82 232.99 210.82 233.81 C 210.82 234.64 210.15 235.31 209.32 235.31 Z" fill="#ccccde" fill-rule="nonzero" group-id="2,6" node-id="303" stroke="none" target-height="3" target-width="54.660004" target-x="156.16" target-y="232.31"></path><path d="M 252.38 200.35 C 252.38 203.31 249.95 205.74 246.99 205.74 L 120.00 205.74 C 117.03 205.74 114.61 203.31 114.61 200.35 L 114.61 108.10 C 114.61 105.14 117.03 102.71 120.00 102.71 L 246.99 102.71 C 249.95 102.71 252.38 105.14 252.38 108.10 L 252.38 200.35 L 252.38 200.35 Z" fill="#ffffff" fill-rule="nonzero" group-id="2,6,29" node-id="307" stroke="none" target-height="103.03001" target-width="137.77" target-x="114.61" target-y="102.71"></path><path d="M 246.99 206.24 L 120.00 206.24 C 116.75 206.24 114.11 203.60 114.11 200.35 L 114.11 108.10 C 114.11 104.86 116.75 102.21 120.00 102.21 L 246.99 102.21 C 250.23 102.21 252.88 104.86 252.88 108.10 L 252.88 200.35 C 252.88 203.60 250.23 206.24 246.99 206.24 Z M 120.00 103.21 C 117.30 103.21 115.11 105.41 115.11 108.11 L 115.11 200.35 C 115.11 203.05 117.30 205.24 120.00 205.24 L 246.99 205.24 C 249.68 205.24 251.88 203.05 251.88 200.35 L 251.88 108.11 C 251.88 105.41 249.68 103.21 246.99 103.21 L 120.00 103.21 Z" fill="#ccccde" fill-rule="nonzero" group-id="2,6,29" node-id="309" stroke="none" target-height="104.03001" target-width="138.77" target-x="114.11" target-y="102.21"></path><path d="M 126.44 115.29 L 240.55 115.29 L 240.55 184.56 L 126.44 184.56 Z" fill="#d3e3f5" fill-rule="nonzero" group-id="2,6,30" node-id="314" stroke="none" target-height="69.27" target-width="114.11" target-x="126.44" target-y="115.29"></path><path d="M 240.55 186.06 L 126.44 186.06 C 125.61 186.06 124.94 185.38 124.94 184.56 L 124.94 115.29 C 124.94 114.46 125.61 113.79 126.44 113.79 L 240.55 113.79 C 241.38 113.79 242.05 114.46 242.05 115.29 L 242.05 184.56 C 242.05 185.38 241.38 186.06 240.55 186.06 Z M 127.94 183.06 L 239.05 183.06 L 239.05 116.79 L 127.94 116.79 L 127.94 183.06 Z" fill="#ccccde" fill-rule="nonzero" group-id="2,6,30" node-id="316" stroke="none" target-height="72.27" target-width="117.11" target-x="124.94" target-y="113.79"></path><path d="M 246.99 207.24 L 120.00 207.24 C 116.20 207.24 113.11 204.15 113.11 200.35 L 113.11 108.10 C 113.11 104.30 116.20 101.21 120.00 101.21 L 246.99 101.21 C 250.78 101.21 253.88 104.30 253.88 108.10 L 253.88 200.35 C 253.88 204.15 250.78 207.24 246.99 207.24 Z M 120.00 104.21 C 117.85 104.21 116.11 105.96 116.11 108.11 L 116.11 200.35 C 116.11 202.50 117.85 204.24 120.00 204.24 L 246.99 204.24 C 249.13 204.24 250.88 202.50 250.88 200.35 L 250.88 108.11 C 250.88 105.96 249.13 104.21 246.99 104.21 L 120.00 104.21 Z" fill="#ccccde" fill-rule="nonzero" group-id="2,6" node-id="319" stroke="none" target-height="106.03001" target-width="140.77" target-x="113.11" target-y="101.21"></path></g><g node-id="465"><g node-id="489"><g node-id="492"><path d="M 229.22 126.75 C 229.22 129.50 226.97 131.75 224.22 131.75 L 176.22 131.75 C 173.47 131.75 171.22 129.50 171.22 126.75 L 171.22 42.75 C 171.22 40.00 173.47 37.75 176.22 37.75 L 224.22 37.75 C 226.97 37.75 229.22 40.00 229.22 42.75 L 229.22 126.75 Z" fill="#dae7f5" fill-rule="nonzero" group-id="2,7,31,34" node-id="328" stroke="none" target-height="94" target-width="58" target-x="171.22" target-y="37.75"></path><path d="M 224.22 133.25 L 176.22 133.25 C 172.64 133.25 169.72 130.33 169.72 126.75 L 169.72 42.75 C 169.72 39.17 172.64 36.25 176.22 36.25 L 224.22 36.25 C 227.81 36.25 230.72 39.17 230.72 42.75 L 230.72 126.75 C 230.72 130.33 227.81 133.25 224.22 133.25 Z M 176.22 39.25 C 174.29 39.25 172.72 40.82 172.72 42.75 L 172.72 126.75 C 172.72 128.68 174.29 130.25 176.22 130.25 L 224.22 130.25 C 226.16 130.25 227.72 128.68 227.72 126.75 L 227.72 42.75 C 227.72 40.82 226.16 39.25 224.22 39.25 L 176.22 39.25 Z" fill="#ccccde" fill-rule="nonzero" group-id="2,7,31,34" node-id="330" stroke="none" target-height="97" target-width="61" target-x="169.72" target-y="36.25"></path></g><g node-id="493"><path d="M 229.22 126.75 C 229.22 129.50 226.97 131.75 224.22 131.75 L 176.22 131.75 C 173.47 131.75 171.22 129.50 171.22 126.75 L 171.22 42.75 C 171.22 40.00 173.47 37.75 176.22 37.75 L 224.22 37.75 C 226.97 37.75 229.22 40.00 229.22 42.75 L 229.22 126.75 Z" fill="#dae7f5" fill-rule="nonzero" group-id="2,7,31,35" node-id="335" stroke="none" target-height="94" target-width="58" target-x="171.22" target-y="37.75"></path><path d="M 224.22 133.25 L 176.22 133.25 C 172.64 133.25 169.72 130.33 169.72 126.75 L 169.72 42.75 C 169.72 39.17 172.64 36.25 176.22 36.25 L 224.22 36.25 C 227.81 36.25 230.72 39.17 230.72 42.75 L 230.72 126.75 C 230.72 130.33 227.81 133.25 224.22 133.25 Z M 176.22 39.25 C 174.29 39.25 172.72 40.82 172.72 42.75 L 172.72 126.75 C 172.72 128.68 174.29 130.25 176.22 130.25 L 224.22 130.25 C 226.16 130.25 227.72 128.68 227.72 126.75 L 227.72 42.75 C 227.72 40.82 226.16 39.25 224.22 39.25 L 176.22 39.25 Z" fill="#ccccde" fill-rule="nonzero" group-id="2,7,31,35" node-id="337" stroke="none" target-height="97" target-width="61" target-x="169.72" target-y="36.25"></path></g></g><path d="M 206.72 45.75 L 193.72 45.75 C 192.90 45.75 192.22 45.08 192.22 44.25 C 192.22 43.42 192.90 42.75 193.72 42.75 L 206.72 42.75 C 207.55 42.75 208.22 43.42 208.22 44.25 C 208.22 45.08 207.55 45.75 206.72 45.75 Z" fill="#ccccde" fill-rule="nonzero" group-id="2,7" node-id="341" stroke="none" target-height="3" target-width="16" target-x="192.22" target-y="42.75"></path></g></g><g node-id="461"><g node-id="466"><path d="M 153.04 51.51 L 207.85 51.51 C 207.85 51.51 226.42 49.18 226.42 82.54 L 149.53 82.54" fill="#e8d1b7" fill-rule="nonzero" group-id="3,8" node-id="348" stroke="none" target-height="33.36" target-width="76.89" target-x="149.53" target-y="49.18"></path><path d="M 226.42 84.04 L 149.53 84.04 C 148.70 84.04 148.03 83.37 148.03 82.54 C 148.03 81.71 148.70 81.04 149.53 81.04 L 224.91 81.04 C 224.70 69.31 221.97 60.79 217.01 56.36 C 212.70 52.51 208.22 52.98 208.03 53.00 C 207.97 53.00 207.90 53.01 207.85 53.01 L 153.04 53.01 C 152.21 53.01 151.54 52.34 151.54 51.51 C 151.54 50.68 152.21 50.01 153.04 50.01 L 207.77 50.01 C 208.62 49.93 213.92 49.63 218.93 54.05 C 224.90 59.32 227.92 68.90 227.92 82.54 C 227.92 83.37 227.25 84.04 226.42 84.04 Z" fill="#6e6e96" fill-rule="nonzero" group-id="3,8" node-id="350" stroke="none" target-height="34.41" target-width="79.89" target-x="148.03" target-y="49.63"></path></g><g node-id="467"><path d="M 224.35 63.81 L 188.91 63.81 C 188.91 63.81 202.48 36.12 224.35 63.81 Z" fill="#6e6e96" fill-opacity="0.15" fill-rule="nonzero" group-id="3,9" node-id="355" stroke="none" target-height="27.690002" target-width="35.440002" target-x="188.91" target-y="36.12"></path></g><g node-id="468"><path d="M 106.39 205.36 L 51.59 205.36 C 51.59 205.36 31.06 207.69 31.06 174.33 L 109.90 174.33" fill="#e8d1b7" fill-rule="nonzero" group-id="3,10" node-id="360" stroke="none" target-height="33.36" target-width="78.840004" target-x="31.06" target-y="174.33"></path><path d="M 50.73 206.90 C 48.57 206.90 43.42 206.40 38.69 202.18 C 32.63 196.77 29.56 187.40 29.56 174.33 C 29.56 173.50 30.23 172.83 31.06 172.83 L 109.90 172.83 C 110.73 172.83 111.40 173.50 111.40 174.33 C 111.40 175.16 110.73 175.83 109.90 175.83 L 32.57 175.83 C 32.79 187.22 35.52 195.32 40.69 199.94 C 45.74 204.46 51.36 203.88 51.42 203.87 C 51.47 203.86 51.53 203.86 51.59 203.86 L 106.39 203.86 C 107.22 203.86 107.89 204.53 107.89 205.36 C 107.89 206.19 107.22 206.86 106.39 206.86 L 51.66 206.86 C 51.50 206.88 51.18 206.90 50.73 206.90 Z" fill="#6e6e96" fill-rule="nonzero" group-id="3,10" node-id="362" stroke="none" target-height="34.069992" target-width="81.840004" target-x="29.56" target-y="172.83"></path></g><path d="M 189.68 82.54 L 189.68 182.09 C 189.68 194.89 179.21 205.36 166.41 205.36 L 51.59 205.36 C 51.59 205.36 72.53 205.36 72.53 182.09 L 72.53 82.54 C 72.53 49.03 98.62 51.75 98.62 51.75 L 210.42 51.75 C 190.60 51.75 189.68 82.54 189.68 82.54 Z" fill="#fff6c9" fill-rule="nonzero" group-id="3" node-id="365" stroke="none" target-height="156.33" target-width="158.83" target-x="51.59" target-y="49.03"></path><path d="M 72.53 189.29 L 72.53 182.09 C 72.53 205.36 51.59 205.36 51.59 205.36 L 166.41 205.36 C 179.21 205.36 189.68 194.89 189.68 182.09 L 189.68 189.29 L 72.53 189.29 Z" fill="#6e6e96" fill-opacity="0.1" fill-rule="nonzero" group-id="3,11" node-id="369" stroke="none" target-height="23.270004" target-width="138.09" target-x="51.59" target-y="182.09"></path><path d="M 124.99 87.56 C 124.61 87.56 124.22 87.41 123.93 87.12 L 114.42 77.61 C 114.14 77.33 113.98 76.95 113.98 76.55 C 113.98 76.15 114.14 75.77 114.42 75.49 L 123.93 65.98 C 124.52 65.39 125.47 65.39 126.05 65.98 C 126.64 66.56 126.64 67.52 126.05 68.10 L 117.60 76.55 L 126.05 84.99 C 126.64 85.58 126.64 86.53 126.05 87.11 C 125.76 87.41 125.38 87.56 124.99 87.56 Z" fill="#6e6e96" fill-opacity="0.44" fill-rule="nonzero" group-id="3,12" node-id="374" stroke="none" target-height="22.169998" target-width="12.659996" target-x="113.98" target-y="65.39"></path><path d="M 142.92 87.56 C 142.53 87.56 142.15 87.41 141.86 87.12 C 141.27 86.53 141.27 85.58 141.86 85.00 L 150.30 76.55 L 141.86 68.10 C 141.27 67.52 141.27 66.57 141.86 65.98 C 142.44 65.39 143.39 65.39 143.98 65.98 L 153.49 75.49 C 154.07 76.07 154.07 77.03 153.49 77.61 L 143.98 87.12 C 143.69 87.41 143.30 87.56 142.92 87.56 Z" fill="#6e6e96" fill-opacity="0.44" fill-rule="nonzero" group-id="3,12" node-id="376" stroke="none" target-height="22.169998" target-width="12.800003" target-x="141.27" target-y="65.39"></path><path d="M 131.78 90.00 C 131.68 90.00 131.57 89.99 131.47 89.97 C 130.66 89.79 130.14 88.99 130.32 88.18 L 135.61 63.60 C 135.79 62.79 136.59 62.28 137.40 62.45 C 138.21 62.62 138.72 63.42 138.55 64.23 L 133.25 88.82 C 133.10 89.52 132.48 90.00 131.78 90.00 Z" fill="#6e6e96" fill-opacity="0.44" fill-rule="nonzero" group-id="3,12" node-id="378" stroke="none" target-height="27.720001" target-width="8.580002" target-x="130.14" target-y="62.28"></path><path d="M 92.70 103.31 L 84.62 103.31 C 83.79 103.31 83.12 102.64 83.12 101.81 C 83.12 100.98 83.79 100.31 84.62 100.31 L 92.70 100.31 C 93.53 100.31 94.20 100.98 94.20 101.81 C 94.20 102.64 93.52 103.31 92.70 103.31 Z" fill="#ffc4fd" fill-rule="nonzero" group-id="3" node-id="381" stroke="none" target-height="3" target-width="11.079994" target-x="83.12" target-y="100.31"></path><path d="M 143.62 103.31 L 106.39 103.31 C 105.56 103.31 104.89 102.64 104.89 101.81 C 104.89 100.98 105.56 100.31 106.39 100.31 L 143.62 100.31 C 144.45 100.31 145.12 100.98 145.12 101.81 C 145.12 102.64 144.45 103.31 143.62 103.31 Z" fill="#f0d2b4" fill-rule="nonzero" group-id="3" node-id="383" stroke="none" target-height="3" target-width="40.229996" target-x="104.89" target-y="100.31"></path><path d="M 168.90 103.31 L 152.75 103.31 C 151.92 103.31 151.25 102.64 151.25 101.81 C 151.25 100.98 151.92 100.31 152.75 100.31 L 168.90 100.31 C 169.73 100.31 170.40 100.98 170.40 101.81 C 170.40 102.64 169.73 103.31 168.90 103.31 Z" fill="#6e6e96" fill-opacity="0.3" fill-rule="nonzero" group-id="3,13" node-id="387" stroke="none" target-height="3" target-width="19.149994" target-x="151.25" target-y="100.31"></path><path d="M 109.20 114.19 L 94.45 114.19 C 93.62 114.19 92.95 113.52 92.95 112.69 C 92.95 111.86 93.62 111.19 94.45 111.19 L 109.20 111.19 C 110.03 111.19 110.70 111.86 110.70 112.69 C 110.70 113.52 110.03 114.19 109.20 114.19 Z" fill="#ffc4fd" fill-rule="nonzero" group-id="3" node-id="390" stroke="none" target-height="3" target-width="17.75" target-x="92.95" target-y="111.19"></path><path d="M 117.10 123.15 L 100.25 123.15 C 99.42 123.15 98.75 122.48 98.75 121.65 C 98.75 120.82 99.42 120.15 100.25 120.15 L 117.10 120.15 C 117.93 120.15 118.60 120.82 118.60 121.65 C 118.60 122.48 117.93 123.15 117.10 123.15 Z" fill="#ffc4fd" fill-rule="nonzero" group-id="3" node-id="392" stroke="none" target-height="3" target-width="19.849998" target-x="98.75" target-y="120.15"></path><path d="M 153.10 123.15 L 127.46 123.15 C 126.63 123.15 125.96 122.48 125.96 121.65 C 125.96 120.82 126.63 120.15 127.46 120.15 L 153.10 120.15 C 153.93 120.15 154.60 120.82 154.60 121.65 C 154.60 122.48 153.93 123.15 153.10 123.15 Z" fill="#6e6e96" fill-opacity="0.3" fill-rule="nonzero" group-id="3,14" node-id="396" stroke="none" target-height="3" target-width="28.640007" target-x="125.96" target-y="120.15"></path><path d="M 151.34 132.45 L 135.89 132.45 C 135.06 132.45 134.39 131.78 134.39 130.95 C 134.39 130.13 135.06 129.45 135.89 129.45 L 151.34 129.45 C 152.17 129.45 152.84 130.13 152.84 130.95 C 152.84 131.78 152.17 132.45 151.34 132.45 Z" fill="#90abc4" fill-rule="nonzero" group-id="3" node-id="399" stroke="none" target-height="3" target-width="18.449997" target-x="134.39" target-y="129.45"></path><path d="M 125.36 132.45 L 114.47 132.45 C 113.64 132.45 112.97 131.78 112.97 130.95 C 112.97 130.13 113.64 129.45 114.47 129.45 L 125.36 129.45 C 126.19 129.45 126.86 130.13 126.86 130.95 C 126.86 131.78 126.18 132.45 125.36 132.45 Z" fill="#f0d2b4" fill-rule="nonzero" group-id="3" node-id="401" stroke="none" target-height="3" target-width="13.889999" target-x="112.97" target-y="129.45"></path><path d="M 174.17 132.45 L 158.37 132.45 C 157.54 132.45 156.87 131.78 156.87 130.95 C 156.87 130.13 157.54 129.45 158.37 129.45 L 174.17 129.45 C 175.00 129.45 175.67 130.13 175.67 130.95 C 175.67 131.78 175.00 132.45 174.17 132.45 Z" fill="#6e6e96" fill-opacity="0.3" fill-rule="nonzero" group-id="3,15" node-id="405" stroke="none" target-height="3" target-width="18.800003" target-x="156.87" target-y="129.45"></path><path d="M 142.56 140.88 L 135.89 140.88 C 135.06 140.88 134.39 140.21 134.39 139.38 C 134.39 138.56 135.06 137.88 135.89 137.88 L 142.56 137.88 C 143.39 137.88 144.06 138.56 144.06 139.38 C 144.06 140.21 143.39 140.88 142.56 140.88 Z" fill="#90abc4" fill-rule="nonzero" group-id="3" node-id="408" stroke="none" target-height="3" target-width="9.669998" target-x="134.39" target-y="137.88"></path><path d="M 125.36 140.88 L 114.47 140.88 C 113.64 140.88 112.97 140.21 112.97 139.38 C 112.97 138.56 113.64 137.88 114.47 137.88 L 125.36 137.88 C 126.19 137.88 126.86 138.56 126.86 139.38 C 126.86 140.21 126.18 140.88 125.36 140.88 Z" fill="#f0d2b4" fill-rule="nonzero" group-id="3" node-id="410" stroke="none" target-height="3" target-width="13.889999" target-x="112.97" target-y="137.88"></path><path d="M 159.07 140.88 L 149.24 140.88 C 148.41 140.88 147.74 140.21 147.74 139.38 C 147.74 138.56 148.41 137.88 149.24 137.88 L 159.07 137.88 C 159.90 137.88 160.57 138.56 160.57 139.38 C 160.57 140.21 159.90 140.88 159.07 140.88 Z" fill="#6e6e96" fill-opacity="0.3" fill-rule="nonzero" group-id="3,16" node-id="414" stroke="none" target-height="3" target-width="12.830002" target-x="147.74" target-y="137.88"></path><path d="M 151.00 151.42 L 135.89 151.42 C 135.06 151.42 134.39 150.75 134.39 149.92 C 134.39 149.09 135.06 148.42 135.89 148.42 L 151.00 148.42 C 151.82 148.42 152.50 149.09 152.50 149.92 C 152.50 150.75 151.82 151.42 151.00 151.42 Z" fill="#90abc4" fill-rule="nonzero" group-id="3" node-id="417" stroke="none" target-height="3" target-width="18.11" target-x="134.39" target-y="148.42"></path><path d="M 126.76 151.42 L 114.47 151.42 C 113.64 151.42 112.97 150.75 112.97 149.92 C 112.97 149.09 113.64 148.42 114.47 148.42 L 126.76 148.42 C 127.59 148.42 128.26 149.09 128.26 149.92 C 128.26 150.75 127.59 151.42 126.76 151.42 Z" fill="#f0d2b4" fill-rule="nonzero" group-id="3" node-id="419" stroke="none" target-height="3" target-width="15.289993" target-x="112.97" target-y="148.42"></path><path d="M 163.99 151.42 L 157.67 151.42 C 156.84 151.42 156.17 150.75 156.17 149.92 C 156.17 149.09 156.84 148.42 157.67 148.42 L 163.99 148.42 C 164.81 148.42 165.49 149.09 165.49 149.92 C 165.49 150.75 164.81 151.42 163.99 151.42 Z" fill="#6e6e96" fill-opacity="0.3" fill-rule="nonzero" group-id="3,17" node-id="423" stroke="none" target-height="3" target-width="9.320007" target-x="156.17" target-y="148.42"></path><path d="M 108.50 161.60 L 100.25 161.60 C 99.42 161.60 98.75 160.93 98.75 160.10 C 98.75 159.28 99.42 158.60 100.25 158.60 L 108.50 158.60 C 109.33 158.60 110.00 159.28 110.00 160.10 C 110.00 160.93 109.33 161.60 108.50 161.60 Z" fill="#6e6e96" fill-opacity="0.3" fill-rule="nonzero" group-id="3,18" node-id="428" stroke="none" target-height="3" target-width="11.25" target-x="98.75" target-y="158.6"></path><path d="M 99.72 170.38 L 94.45 170.38 C 93.62 170.38 92.95 169.71 92.95 168.88 C 92.95 168.05 93.62 167.38 94.45 167.38 L 99.72 167.38 C 100.55 167.38 101.22 168.05 101.22 168.88 C 101.22 169.71 100.55 170.38 99.72 170.38 Z" fill="#6e6e96" fill-opacity="0.3" fill-rule="nonzero" group-id="3,19" node-id="433" stroke="none" target-height="3" target-width="8.270004" target-x="92.95" target-y="167.38"></path><path d="M 90.59 179.16 L 84.62 179.16 C 83.79 179.16 83.12 178.49 83.12 177.66 C 83.12 176.83 83.79 176.16 84.62 176.16 L 90.59 176.16 C 91.42 176.16 92.09 176.83 92.09 177.66 C 92.09 178.49 91.42 179.16 90.59 179.16 Z" fill="#6e6e96" fill-opacity="0.3" fill-rule="nonzero" group-id="3,20" node-id="438" stroke="none" target-height="3" target-width="8.969994" target-x="83.12" target-y="176.16"></path><path d="M 131.91 132.45 L 129.57 132.45 C 128.74 132.45 128.07 131.78 128.07 130.95 C 128.07 130.13 128.74 129.45 129.57 129.45 L 131.91 129.45 C 132.74 129.45 133.41 130.13 133.41 130.95 C 133.41 131.78 132.74 132.45 131.91 132.45 Z" fill="#f0d2b4" fill-rule="nonzero" group-id="3" node-id="441" stroke="none" target-height="3" target-width="5.3399963" target-x="128.07" target-y="129.45"></path><path d="M 131.56 140.88 L 129.69 140.88 C 128.86 140.88 128.19 140.21 128.19 139.38 C 128.19 138.56 128.86 137.88 129.69 137.88 L 131.56 137.88 C 132.39 137.88 133.06 138.56 133.06 139.38 C 133.06 140.21 132.39 140.88 131.56 140.88 Z" fill="#f0d2b4" fill-rule="nonzero" group-id="3" node-id="443" stroke="none" target-height="3" target-width="4.869995" target-x="128.19" target-y="137.88"></path><path d="M 131.91 151.42 L 130.04 151.42 C 129.21 151.42 128.54 150.75 128.54 149.92 C 128.54 149.09 129.21 148.42 130.04 148.42 L 131.91 148.42 C 132.74 148.42 133.41 149.09 133.41 149.92 C 133.41 150.75 132.74 151.42 131.91 151.42 Z" fill="#f0d2b4" fill-rule="nonzero" group-id="3" node-id="445" stroke="none" target-height="3" target-width="4.8700104" target-x="128.54" target-y="148.42"></path><path d="M 35.08 193.06 L 70.52 193.06 C 70.52 193.06 56.95 220.75 35.08 193.06 Z" fill="#6e6e96" fill-opacity="0.15" fill-rule="nonzero" group-id="3,21" node-id="449" stroke="none" target-height="27.690002" target-width="35.439995" target-x="35.08" target-y="193.06"></path><path d="M 78.37 61.87 L 195.66 61.87 C 198.72 56.28 203.53 51.75 211.14 51.75 L 99.33 51.75 C 99.33 51.75 85.97 50.36 78.37 61.87 Z" fill="#ffffff" fill-opacity="0.51" fill-rule="nonzero" group-id="3,22" node-id="454" stroke="none" target-height="11.509998" target-width="132.76999" target-x="78.37" target-y="50.36"></path><path d="M 166.41 206.86 L 51.59 206.86 C 50.76 206.86 50.09 206.19 50.09 205.36 C 50.09 204.53 50.76 203.86 51.59 203.86 C 52.38 203.86 71.03 203.54 71.03 182.09 L 71.03 82.54 C 71.03 69.75 74.71 60.52 81.96 55.11 C 87.90 50.67 94.62 50.20 97.23 50.20 C 97.98 50.20 98.49 50.23 98.69 50.25 L 210.42 50.25 C 211.25 50.25 211.92 50.92 211.92 51.75 C 211.92 52.58 211.25 53.25 210.42 53.25 C 192.29 53.25 191.19 82.29 191.18 82.58 L 191.18 182.09 C 191.18 195.75 180.07 206.86 166.41 206.86 Z M 62.53 203.86 L 166.41 203.86 C 178.41 203.86 188.18 194.09 188.18 182.09 L 188.18 82.54 C 188.19 82.17 188.45 74.48 191.20 66.65 C 193.38 60.46 196.51 55.95 200.46 53.25 L 98.62 53.25 C 98.57 53.25 98.51 53.25 98.46 53.24 C 98.46 53.24 98.00 53.20 97.23 53.20 C 94.92 53.20 88.97 53.62 83.76 57.51 C 77.31 62.33 74.03 70.75 74.03 82.54 L 74.03 182.09 C 74.03 194.60 68.23 200.80 62.53 203.86 Z" fill="#6e6e96" fill-rule="nonzero" group-id="3" node-id="457" stroke="none" target-height="156.66" target-width="161.83" target-x="50.09" target-y="50.2"></path></g></svg>