<?xml version="1.0" standalone="no"?><!DOCTYPE svg PUBLIC "-//W3C//DTD SVG 1.1//EN" "http://www.w3.org/Graphics/SVG/1.1/DTD/svg11.dtd"><svg t="1690419724429" class="icon" viewBox="0 0 1024 1024" version="1.1" xmlns="http://www.w3.org/2000/svg" p-id="4026" id="mx_n_1690419724430" xmlns:xlink="http://www.w3.org/1999/xlink" width="200" height="200"><path d="M793.6 938.666667H345.6c-34.133333 0-64-29.866667-64-64S311.466667 810.666667 345.6 810.666667h89.6c12.8 0 21.333333-8.533333 21.333333-21.333334v-81.066666c0-12.8 8.533333-21.333333 21.333334-21.333334s21.333333 8.533333 21.333333 21.333334v81.066666c0 34.133333-29.866667 64-64 64H345.6c-12.8 0-21.333333 8.533333-21.333333 21.333334s12.8 21.333333 21.333333 21.333333h448c12.8 0 21.333333 8.533333 21.333333 21.333333s-8.533333 21.333333-21.333333 21.333334z" fill="#4F2AB5" p-id="4027"></path><path d="M170.666667 307.2h686.933333c46.933333 0 85.333333 38.4 85.333333 85.333333v256c0 46.933333-38.4 85.333333-85.333333 85.333334H170.666667c-46.933333 0-85.333333-38.4-85.333334-85.333334v-256c0-46.933333 38.4-85.333333 85.333334-85.333333z" fill="#A02D67" p-id="4028"></path><path d="M857.6 307.2H512c0-98.133333-81.066667-174.933333-174.933333-174.933333-98.133333 0-174.933333 81.066667-174.933334 174.933333-42.666667 4.266667-76.8 42.666667-76.8 85.333333v170.666667c0 46.933333 38.4 85.333333 85.333334 85.333333h686.933333c46.933333 0 85.333333-38.4 85.333333-85.333333v-170.666667c0-46.933333-38.4-85.333333-85.333333-85.333333z" fill="#D04C83" p-id="4029"></path><path d="M857.6 669.866667H170.666667c-59.733333 0-106.666667-46.933333-106.666667-106.666667v-170.666667c0-46.933333 29.866667-89.6 76.8-102.4 4.266667-46.933333 25.6-89.6 55.466667-123.733333 38.4-38.4 85.333333-59.733333 140.8-59.733333 102.4 0 187.733333 76.8 196.266666 174.933333h324.266667c59.733333 0 106.666667 46.933333 106.666667 106.666667v170.666666c0 64-46.933333 110.933333-106.666667 110.933334zM337.066667 153.6c-85.333333 0-153.6 68.266667-153.6 153.6v17.066667l-21.333334 4.266666c-29.866667 4.266667-55.466667 29.866667-55.466666 64v170.666667c0 34.133333 29.866667 64 64 64h686.933333c34.133333 0 64-29.866667 64-64v-170.666667c0-34.133333-29.866667-64-64-64h-366.933333v-21.333333c0-85.333333-68.266667-153.6-153.6-153.6z" fill="#301196" p-id="4030"></path><path d="M857.6 755.2H170.666667c-59.733333 0-106.666667-46.933333-106.666667-106.666667v-256h42.666667v256c0 34.133333 29.866667 64 64 64h686.933333c34.133333 0 64-29.866667 64-64v-256h42.666667v256c0 59.733333-46.933333 106.666667-106.666667 106.666667z" fill="#301196" p-id="4031"></path><path d="M170.666667 622.933333c-34.133333 0-59.733333-25.6-59.733334-59.733333v-170.666667c0-29.866667 21.333333-55.466667 51.2-59.733333l21.333334-4.266667v-21.333333c0-81.066667 68.266667-149.333333 149.333333-149.333333s149.333333 68.266667 149.333333 149.333333v25.6H853.333333c34.133333 0 59.733333 25.6 59.733334 59.733333v170.666667c0 34.133333-25.6 59.733333-59.733334 59.733333H170.666667z" fill="#D86097" p-id="4032"></path><path d="M337.066667 307.2m-128 0a128 128 0 1 0 256 0 128 128 0 1 0-256 0Z" fill="#4F2AB5" p-id="4033"></path><path d="M337.066667 307.2m-64 0a64 64 0 1 0 128 0 64 64 0 1 0-128 0Z" fill="#7750E2" p-id="4034"></path><path d="M337.066667 307.2m-21.333334 0a21.333333 21.333333 0 1 0 42.666667 0 21.333333 21.333333 0 1 0-42.666667 0Z" fill="#301196" p-id="4035"></path><path d="M230.4 465.066667h213.333333c12.8 0 21.333333 8.533333 21.333334 21.333333s-8.533333 21.333333-21.333334 21.333333h-213.333333c-12.8 0-21.333333-8.533333-21.333333-21.333333s8.533333-21.333333 21.333333-21.333333zM230.4 537.6h213.333333c12.8 0 21.333333 8.533333 21.333334 21.333333s-8.533333 21.333333-21.333334 21.333334h-213.333333c-12.8 0-21.333333-8.533333-21.333333-21.333334s8.533333-21.333333 21.333333-21.333333z" fill="#D04C83" p-id="4036"></path><path d="M733.866667 375.466667h93.866666c8.533333 0 17.066667 8.533333 17.066667 17.066666v93.866667c0 8.533333-8.533333 17.066667-17.066667 17.066667h-93.866666c-8.533333 0-17.066667-8.533333-17.066667-17.066667V392.533333c0-8.533333 8.533333-17.066667 17.066667-17.066666z" fill="#4F2AB5" p-id="4037"></path><path d="M780.8 482.133333c-25.6 0-42.666667-17.066667-42.666667-42.666666s17.066667-42.666667 42.666667-42.666667 42.666667 17.066667 42.666667 42.666667c0 21.333333-21.333333 42.666667-42.666667 42.666666z" fill="#6ED6AB" p-id="4038"></path><path d="M567.466667 375.466667h93.866666c8.533333 0 17.066667 8.533333 17.066667 17.066666v93.866667c0 8.533333-8.533333 17.066667-17.066667 17.066667h-93.866666c-8.533333 0-17.066667-8.533333-17.066667-17.066667V392.533333c0-8.533333 8.533333-17.066667 17.066667-17.066666z" fill="#4F2AB5" p-id="4039"></path><path d="M614.4 482.133333c-25.6 0-42.666667-17.066667-42.666667-42.666666s17.066667-42.666667 42.666667-42.666667 42.666667 17.066667 42.666667 42.666667c0 21.333333-17.066667 42.666667-42.666667 42.666666z" fill="#EDC35B" p-id="4040"></path><path d="M750.933333 563.2m-25.6 0a25.6 25.6 0 1 0 51.2 0 25.6 25.6 0 1 0-51.2 0Z" fill="#301196" p-id="4041"></path><path d="M819.2 563.2m-25.6 0a25.6 25.6 0 1 0 51.2 0 25.6 25.6 0 1 0-51.2 0Z" fill="#301196" p-id="4042"></path></svg>