<?xml version="1.0" standalone="no"?><!DOCTYPE svg PUBLIC "-//W3C//DTD SVG 1.1//EN" "http://www.w3.org/Graphics/SVG/1.1/DTD/svg11.dtd"><svg height="238" node-id="1" sillyvg="true" template-height="238" template-width="256" version="1.1" viewBox="0 0 256 238" width="256" xmlns="http://www.w3.org/2000/svg" xmlns:xlink="http://www.w3.org/1999/xlink"><defs node-id="348"></defs><g node-id="572"><g node-id="576"><g node-id="610"><g node-id="611"><path d="M 236.39 118.20 C 236.39 82.05 207.02 52.75 170.79 52.75 C 170.23 52.75 169.67 52.78 169.11 52.79 C 157.67 33.62 136.70 20.76 112.70 20.76 C 76.47 20.76 47.10 50.06 47.10 86.21 C 47.10 86.68 47.13 87.14 47.14 87.61 C 47.14 107.18 13.95 120.12 13.95 144.50 C 13.95 180.64 43.32 209.94 79.55 209.94 C 81.61 209.94 83.65 209.83 85.66 209.65 C 112.24 209.65 115.90 233.46 136.28 233.46 C 169.77 233.46 197.37 208.42 201.37 176.09 C 210.59 153.53 236.39 143.32 236.39 118.20 Z" fill="#bddbff" fill-opacity="0.39" fill-rule="nonzero" group-id="1,5,39,40" node-id="354" stroke="none" target-height="212.70001" target-width="222.44" target-x="13.95" target-y="20.76"></path></g></g></g><g node-id="577"><path d="M 211.38 18.62 C 211.38 18.55 211.39 18.47 211.39 18.39 C 211.39 10.22 204.18 3.60 195.28 3.60 C 187.63 3.60 181.22 8.51 179.59 15.09 C 179.34 15.07 179.08 15.06 178.83 15.06 C 173.54 15.06 169.25 19.00 169.25 23.86 C 169.25 24.90 169.45 25.90 169.81 26.83 C 168.33 28.76 167.45 31.11 167.45 33.66 C 167.45 40.10 173.06 45.34 180.04 45.48 L 180.04 45.48 L 204.78 45.48 C 213.26 45.48 220.13 39.16 220.13 31.37 C 220.13 25.75 216.55 20.89 211.38 18.62 Z" fill="#ffffff" fill-rule="nonzero" group-id="1,6" node-id="361" stroke="none" target-height="41.88" target-width="52.680008" target-x="167.45" target-y="3.6"></path><path d="M 204.78 46.98 L 180.04 46.98 C 179.98 46.98 179.92 46.98 179.87 46.97 C 172.18 46.75 165.95 40.80 165.95 33.66 C 165.95 31.13 166.71 28.70 168.14 26.58 C 167.88 25.70 167.75 24.79 167.75 23.86 C 167.75 18.29 172.53 13.74 178.47 13.56 C 180.73 6.75 187.47 2.10 195.28 2.10 C 204.73 2.10 212.46 9.02 212.87 17.67 C 218.22 20.39 221.63 25.67 221.63 31.37 C 221.63 39.98 214.07 46.98 204.78 46.98 Z M 180.17 43.98 L 204.78 43.98 C 212.42 43.98 218.63 38.32 218.63 31.37 C 218.63 26.55 215.55 22.09 210.78 20.00 C 210.23 19.76 209.88 19.22 209.88 18.62 L 209.88 18.45 C 209.88 11.06 203.33 5.09 195.28 5.09 C 188.52 5.09 182.53 9.45 181.04 15.45 C 180.87 16.16 180.19 16.65 179.47 16.58 C 179.26 16.57 179.04 16.56 178.83 16.56 C 174.37 16.56 170.75 19.83 170.75 23.86 C 170.75 24.69 170.90 25.50 171.21 26.29 C 171.40 26.77 171.32 27.33 171.00 27.74 C 169.66 29.49 168.95 31.53 168.95 33.65 C 168.95 39.22 173.94 43.85 180.06 43.97 C 180.10 43.98 180.13 43.98 180.17 43.98 Z" fill="#ccccde" fill-rule="nonzero" group-id="1,6" node-id="363" stroke="none" target-height="44.88" target-width="55.680008" target-x="165.95" target-y="2.1"></path></g><g node-id="578"><path d="M 19.41 73.79 L 30.57 73.79 L 30.57 76.79 L 19.41 76.79 Z" fill="#ad7f7f" fill-opacity="0.43" fill-rule="nonzero" group-id="1,7" node-id="368" stroke="none" target-height="3" target-width="11.16" target-x="19.41" target-y="73.79"></path><path d="M 23.49 69.88 L 26.49 69.88 L 26.49 84.19 L 23.49 84.19 Z" fill="#ad7f7f" fill-opacity="0.43" fill-rule="nonzero" group-id="1,7" node-id="370" stroke="none" target-height="14.310005" target-width="3" target-x="23.49" target-y="69.88"></path></g><g node-id="579"><path d="M 222.40 199.34 C 218.76 199.34 215.80 196.38 215.80 192.74 C 215.80 189.10 218.76 186.14 222.40 186.14 C 226.03 186.14 229.00 189.10 229.00 192.74 C 229.00 196.38 226.03 199.34 222.40 199.34 Z M 222.40 189.15 C 220.41 189.15 218.80 190.76 218.80 192.74 C 218.80 194.73 220.41 196.34 222.40 196.34 C 224.38 196.34 226.00 194.73 226.00 192.74 C 226.00 190.76 224.38 189.15 222.40 189.15 Z" fill="#6e967e" fill-opacity="0.38" fill-rule="nonzero" group-id="1,8" node-id="375" stroke="none" target-height="13.199997" target-width="13.199997" target-x="215.8" target-y="186.14"></path></g><g node-id="580"><path d="M 226.75 44.04 L 237.92 44.04 L 237.92 47.04 L 226.75 47.04 Z" fill="#5fc2ff" fill-opacity="0.43" fill-rule="nonzero" group-id="1,9" node-id="380" stroke="none" target-height="3" target-width="11.169998" target-x="226.75" target-y="44.04"></path><path d="M 230.84 40.14 L 233.84 40.14 L 233.84 54.44 L 230.84 54.44 Z" fill="#5fc2ff" fill-opacity="0.43" fill-rule="nonzero" group-id="1,9" node-id="382" stroke="none" target-height="14.299999" target-width="3" target-x="230.84" target-y="40.14"></path></g><g node-id="581"><path d="M 66.10 98.29 C 62.47 98.29 59.51 95.33 59.51 91.69 C 59.51 88.05 62.47 85.09 66.10 85.09 C 69.74 85.09 72.70 88.05 72.70 91.69 C 72.70 95.33 69.74 98.29 66.10 98.29 Z M 66.10 88.09 C 64.12 88.09 62.51 89.71 62.51 91.69 C 62.51 93.68 64.12 95.29 66.10 95.29 C 68.09 95.29 69.70 93.68 69.70 91.69 C 69.70 89.71 68.09 88.09 66.10 88.09 Z" fill="#ff9fcc" fill-opacity="0.38" fill-rule="nonzero" group-id="1,10" node-id="387" stroke="none" target-height="13.200005" target-width="13.189999" target-x="59.51" target-y="85.09"></path></g><g node-id="582"><path d="M 208.42 111.44 L 215.39 111.44 L 215.39 114.44 L 208.42 114.44 Z" fill="#ad7f7f" fill-opacity="0.43" fill-rule="nonzero" group-id="1,11" node-id="392" stroke="none" target-height="3" target-width="6.970001" target-x="208.42" target-y="111.44"></path><path d="M 210.41 109.56 L 213.41 109.56 L 213.41 118.50 L 210.41 118.50 Z" fill="#ad7f7f" fill-opacity="0.43" fill-rule="nonzero" group-id="1,11" node-id="394" stroke="none" target-height="8.940002" target-width="3" target-x="210.41" target-y="109.56"></path></g><g node-id="583"><path d="M 38.14 32.85 C 38.14 32.79 38.14 32.72 38.14 32.66 C 38.14 25.75 32.04 20.14 24.52 20.14 C 18.04 20.14 12.63 24.29 11.25 29.86 C 11.03 29.84 10.82 29.83 10.60 29.83 C 6.13 29.83 2.50 33.17 2.50 37.28 C 2.50 38.16 2.67 39.01 2.97 39.79 C 1.72 41.42 0.98 43.41 0.98 45.56 C 0.98 51.01 5.72 55.44 11.62 55.56 L 11.62 55.57 L 32.55 55.57 C 39.72 55.57 45.54 50.22 45.54 43.63 C 45.54 38.88 42.51 34.77 38.14 32.85 Z" fill="#ffffff" fill-rule="nonzero" group-id="1,12" node-id="398" stroke="none" target-height="35.43" target-width="44.56" target-x="0.98" target-y="20.14"></path><path d="M 32.55 57.07 L 11.62 57.07 C 11.57 57.07 11.52 57.06 11.46 57.06 C 4.84 56.86 -0.52 51.73 -0.52 45.56 C -0.52 43.41 0.11 41.35 1.31 39.54 C 1.10 38.80 1.00 38.05 1.00 37.28 C 1.00 32.49 5.05 28.58 10.13 28.35 C 12.12 22.57 17.87 18.64 24.52 18.64 C 32.59 18.64 39.20 24.52 39.62 31.90 C 44.16 34.26 47.04 38.77 47.04 43.63 C 47.04 51.04 40.54 57.07 32.55 57.07 Z M 11.74 54.07 L 32.55 54.07 C 38.89 54.07 44.04 49.38 44.04 43.63 C 44.04 39.65 41.49 35.96 37.53 34.23 C 36.99 33.99 36.64 33.45 36.64 32.85 C 36.64 32.83 36.64 32.71 36.64 32.69 C 36.64 26.58 31.20 21.64 24.52 21.64 C 18.91 21.64 13.93 25.25 12.70 30.22 C 12.53 30.93 11.88 31.41 11.14 31.35 C 10.96 31.34 10.78 31.33 10.60 31.33 C 6.96 31.33 4.00 34.00 4.00 37.28 C 4.00 37.95 4.12 38.61 4.37 39.24 C 4.56 39.74 4.48 40.29 4.16 40.71 C 3.06 42.14 2.48 43.81 2.48 45.56 C 2.48 50.15 6.59 53.96 11.65 54.06 C 11.68 54.06 11.71 54.06 11.74 54.07 Z" fill="#ccccde" fill-rule="nonzero" group-id="1,12" node-id="400" stroke="none" target-height="38.43" target-width="47.56" target-x="-0.52" target-y="18.64"></path></g></g><g node-id="573"><g node-id="584"><path d="M 226.78 238.52 L 24.49 238.52 C 23.66 238.52 22.99 237.85 22.99 237.02 C 22.99 236.19 23.66 235.52 24.49 235.52 L 226.78 235.52 C 227.60 235.52 228.28 236.19 228.28 237.02 C 228.28 237.85 227.60 238.52 226.78 238.52 Z" fill="#6e6e96" fill-opacity="0.15" fill-rule="nonzero" group-id="2,13" node-id="407" stroke="none" target-height="3" target-width="205.29" target-x="22.99" target-y="235.52"></path></g></g><g node-id="574"><g node-id="585"><path d="M 47.82 217.59 L 199.00 217.59 L 199.00 227.04 L 47.82 227.04 Z" fill="#6e6e96" fill-opacity="0.15" fill-rule="nonzero" group-id="3,14" node-id="414" stroke="none" target-height="9.449997" target-width="151.18" target-x="47.82" target-y="217.59"></path></g><g node-id="586"><path d="M 190.87 123.55 L 55.38 123.55 C 50.26 123.55 46.07 124.63 46.07 132.85 L 46.07 138.09 C 46.07 129.86 50.26 128.78 55.38 128.78 L 190.87 128.78 C 195.99 128.78 200.18 129.87 200.18 138.09 L 200.18 132.85 C 200.18 124.63 195.99 123.55 190.87 123.55 Z" fill="#ffffff" fill-opacity="0.32" fill-rule="nonzero" group-id="3,15" node-id="419" stroke="none" target-height="14.539993" target-width="154.10999" target-x="46.07" target-y="123.55"></path></g><g node-id="587"><path d="M 212.84 222.88 L 138.34 222.88 L 138.34 222.95 L 112.74 222.95 L 112.74 222.88 L 37.35 222.88 C 37.35 223.69 37.49 224.47 37.73 225.20 L 37.35 225.20 C 37.35 229.26 37.57 236.08 44.73 236.08 L 205.46 236.08 C 212.62 236.08 212.84 229.27 212.84 225.20 L 212.46 225.20 C 212.70 224.47 212.84 223.69 212.84 222.88 Z" fill="#d0d2db" fill-rule="nonzero" group-id="3,16" node-id="424" stroke="none" target-height="13.199997" target-width="175.48999" target-x="37.35" target-y="222.88"></path></g><g node-id="588"><path d="M 204.29 237.58 L 43.57 237.58 C 34.69 237.58 34.69 228.59 34.69 225.20 C 34.69 224.96 34.74 224.73 34.85 224.53 C 34.74 223.98 34.69 223.43 34.69 222.88 C 34.69 222.05 35.36 221.38 36.19 221.38 L 211.68 221.38 C 212.08 221.38 212.46 221.53 212.74 221.81 C 213.02 222.09 213.18 222.48 213.18 222.88 C 213.18 223.43 213.12 223.98 213.02 224.53 C 213.12 224.73 213.18 224.96 213.18 225.20 C 213.18 228.59 213.18 237.58 204.29 237.58 Z M 37.70 226.19 C 37.81 231.40 38.96 234.58 43.57 234.58 L 204.29 234.58 C 208.91 234.58 210.05 231.40 210.17 226.19 C 210.14 226.16 210.11 226.12 210.08 226.08 C 209.80 225.69 209.72 225.19 209.87 224.73 C 209.91 224.61 209.95 224.49 209.98 224.38 L 37.89 224.38 C 37.92 224.49 37.95 224.61 37.99 224.73 C 38.14 225.18 38.07 225.69 37.79 226.08 C 37.76 226.12 37.73 226.16 37.70 226.19 Z" fill="#6e6e96" fill-rule="nonzero" group-id="3,17" node-id="429" stroke="none" target-height="16.199997" target-width="178.48999" target-x="34.69" target-y="221.38"></path></g><g node-id="589"><path d="M 36.35 221.71 L 36.32 221.71 C 36.32 222.15 36.37 222.59 36.45 223.02 C 36.40 222.57 36.37 222.13 36.35 221.71 Z M 204.42 230.68 L 43.70 230.68 C 38.73 230.68 37.11 227.40 36.58 224.03 L 36.32 224.03 C 36.32 228.09 36.54 234.91 43.70 234.91 L 204.42 234.91 C 211.59 234.91 211.81 228.10 211.81 224.03 L 211.55 224.03 C 211.02 227.40 209.40 230.68 204.42 230.68 Z M 211.77 221.71 C 211.75 222.13 211.72 222.57 211.68 223.01 C 211.76 222.58 211.81 222.15 211.81 221.71 L 211.77 221.71 Z" fill="#6e6e96" fill-opacity="0.15" fill-rule="nonzero" group-id="3,18" node-id="434" stroke="none" target-height="13.199997" target-width="175.48999" target-x="36.32" target-y="221.71"></path></g><g node-id="590"><path d="M 202.11 217.55 C 202.11 220.17 200.09 222.31 197.63 222.31 L 48.93 222.31 C 46.47 222.31 44.45 220.17 44.45 217.55 L 44.45 114.83 C 44.45 112.22 46.47 110.08 48.93 110.08 L 197.63 110.08 C 200.09 110.08 202.11 112.22 202.11 114.83 L 202.11 217.55 L 202.11 217.55 Z" fill="#d0d2db" fill-rule="nonzero" group-id="3,19" node-id="439" stroke="none" target-height="112.229996" target-width="157.66" target-x="44.45" target-y="110.08"></path></g><path d="M 53.40 120.01 L 192.99 120.01 L 192.99 209.67 L 53.40 209.67 Z" fill="#a3d8ff" fill-rule="nonzero" group-id="3" node-id="442" stroke="none" target-height="89.659996" target-width="139.59" target-x="53.4" target-y="120.01"></path><path d="M 197.63 111.03 L 48.93 111.03 C 46.47 111.03 44.45 113.17 44.45 115.78 L 44.45 117.95 C 44.45 115.33 46.47 114.19 48.93 114.19 L 197.63 114.19 C 200.09 114.19 202.11 115.33 202.11 117.95 L 202.11 115.78 C 202.11 113.17 200.09 111.03 197.63 111.03 Z" fill="#f2f5ff" fill-opacity="0.4" fill-rule="nonzero" group-id="3,20" node-id="446" stroke="none" target-height="6.919998" target-width="157.66" target-x="44.45" target-y="111.03"></path><path d="M 197.63 223.81 L 48.93 223.81 C 45.63 223.81 42.95 221.00 42.95 217.55 L 42.95 114.83 C 42.95 111.38 45.63 108.58 48.93 108.58 L 197.63 108.58 C 200.92 108.58 203.61 111.38 203.61 114.83 L 203.61 217.55 C 203.61 219.20 203.00 220.76 201.88 221.94 C 200.75 223.14 199.24 223.81 197.63 223.81 Z M 48.93 111.58 C 47.29 111.58 45.95 113.04 45.95 114.83 L 45.95 217.55 C 45.95 219.35 47.29 220.81 48.93 220.81 L 197.63 220.81 C 199.27 220.81 200.61 219.35 200.61 217.55 L 200.60 114.83 C 200.60 113.04 199.27 111.58 197.63 111.58 L 48.93 111.58 Z" fill="#6e6e96" fill-rule="nonzero" group-id="3,21" node-id="451" stroke="none" target-height="115.229996" target-width="160.66" target-x="42.95" target-y="108.58"></path><path d="M 53.40 120.01 L 192.99 120.01 L 192.99 126.03 L 53.40 126.03 Z" fill="#6e6e96" fill-opacity="0.15" fill-rule="nonzero" group-id="3,22" node-id="456" stroke="none" target-height="6.0199966" target-width="139.59" target-x="53.4" target-y="120.01"></path><path d="M 146.40 209.67 L 193.06 148.92 L 193.06 209.67 Z" fill="#ffffff" fill-opacity="0.25" fill-rule="nonzero" group-id="3,23" node-id="461" stroke="none" target-height="60.75" target-width="46.660004" target-x="146.4" target-y="148.92"></path><path d="M 133.71 116.80 L 114.90 116.80 C 114.07 116.80 113.40 116.13 113.40 115.30 L 113.40 110.08 C 113.40 109.25 114.07 108.58 114.90 108.58 L 133.71 108.58 C 134.54 108.58 135.21 109.25 135.21 110.08 L 135.21 115.30 C 135.21 116.13 134.54 116.80 133.71 116.80 Z M 116.40 113.80 L 132.21 113.80 L 132.21 111.58 L 116.40 111.58 L 116.40 113.80 Z" fill="#6e6e96" fill-rule="nonzero" group-id="3" node-id="464" stroke="none" target-height="8.220001" target-width="21.810005" target-x="113.4" target-y="108.58"></path><path d="M 197.33 217.55 L 48.63 217.55 C 46.17 217.55 44.15 215.41 44.15 212.80 L 44.15 217.55 C 44.15 220.17 46.17 222.31 48.63 222.31 L 197.33 222.31 C 199.79 222.31 201.81 220.17 201.81 217.55 L 201.81 212.80 C 201.81 215.41 199.79 217.55 197.33 217.55 Z" fill="#6e6e96" fill-opacity="0.25" fill-rule="nonzero" group-id="3,24" node-id="468" stroke="none" target-height="9.5099945" target-width="157.66" target-x="44.15" target-y="212.8"></path><path d="M 103.40 209.67 L 171.63 126.03 L 161.63 126.03 L 93.40 209.67 Z" fill="#ffffff" fill-opacity="0.25" fill-rule="nonzero" group-id="3,25" node-id="473" stroke="none" target-height="83.64" target-width="78.23" target-x="93.4" target-y="126.03"></path><path d="M 192.99 126.03 L 124.76 209.67 L 193.06 209.67 Z" fill="#ffffff" fill-opacity="0.25" fill-rule="nonzero" group-id="3,26" node-id="478" stroke="none" target-height="83.64" target-width="68.299995" target-x="124.76" target-y="126.03"></path><path d="M 192.99 211.17 L 53.40 211.17 C 52.57 211.17 51.90 210.50 51.90 209.67 L 51.90 120.01 C 51.90 119.18 52.57 118.51 53.40 118.51 L 192.99 118.51 C 193.82 118.51 194.49 119.18 194.49 120.01 L 194.49 209.67 C 194.49 210.50 193.82 211.17 192.99 211.17 Z M 54.90 208.17 L 191.49 208.17 L 191.49 121.51 L 54.90 121.51 L 54.90 208.17 Z" fill="#6e6e96" fill-rule="nonzero" group-id="3" node-id="481" stroke="none" target-height="92.659996" target-width="142.59" target-x="51.9" target-y="118.51"></path></g><g node-id="575"><g node-id="598"><path d="M 97.41 96.08 C 97.41 96.08 87.01 104.13 85.69 111.84 C 84.37 119.56 86.47 150.32 96.58 136.72 C 101.00 130.79 105.11 122.47 106.70 122.42" fill="#c9d2e3" fill-rule="nonzero" group-id="4,27" node-id="487" stroke="none" target-height="54.240005" target-width="22.329994" target-x="84.37" target-y="96.08"></path><path d="M 91.96 141.66 C 91.42 141.66 90.88 141.54 90.35 141.32 C 87.50 140.10 85.52 135.44 84.48 127.49 C 83.74 121.85 83.63 115.02 84.21 111.59 C 85.62 103.40 96.05 95.24 96.49 94.90 C 97.14 94.39 98.08 94.51 98.59 95.16 C 99.10 95.82 98.98 96.76 98.33 97.27 C 98.23 97.34 88.38 105.06 87.17 112.10 C 86.03 118.75 87.67 136.91 91.53 138.56 C 92.77 139.09 94.64 136.83 95.38 135.83 C 97.13 133.47 98.85 130.71 100.38 128.26 C 103.75 122.84 105.00 120.97 106.66 120.92 C 107.50 120.88 108.18 121.55 108.20 122.38 C 108.22 123.11 107.72 123.73 107.03 123.89 C 106.27 124.46 104.42 127.44 102.92 129.84 C 101.37 132.34 99.61 135.17 97.79 137.62 C 95.79 140.31 93.83 141.66 91.96 141.66 Z" fill="#6e6e96" fill-rule="nonzero" group-id="4,27" node-id="489" stroke="none" target-height="47.270004" target-width="24.590004" target-x="83.63" target-y="94.39"></path></g><g node-id="599"><path d="M 150.60 100.97 C 154.70 103.82 159.12 107.56 160.33 111.07 C 163.12 119.15 160.57 136.19 157.89 142.12 C 156.07 146.16 150.31 132.14 141.03 124.57" fill="#c9d2e3" fill-rule="nonzero" group-id="4,28" node-id="494" stroke="none" target-height="45.190002" target-width="22.089996" target-x="141.03" target-y="100.97"></path><path d="M 157.04 144.33 C 155.16 144.33 153.52 142.03 150.62 137.98 C 147.82 134.07 144.34 129.20 140.09 125.73 C 139.44 125.21 139.35 124.26 139.87 123.62 C 140.39 122.98 141.34 122.88 141.98 123.41 C 146.55 127.13 150.31 132.39 153.06 136.23 C 154.32 138.00 155.84 140.12 156.74 140.99 C 159.37 134.47 161.40 118.77 158.91 111.56 C 158.02 108.99 154.85 105.75 149.74 102.20 C 149.06 101.73 148.89 100.79 149.36 100.11 C 149.84 99.43 150.77 99.26 151.45 99.74 C 157.17 103.71 160.63 107.36 161.74 110.58 C 164.75 119.30 161.89 136.89 159.26 142.73 C 158.69 144.00 157.77 144.27 157.27 144.32 C 157.20 144.33 157.12 144.33 157.04 144.33 Z" fill="#6e6e96" fill-rule="nonzero" group-id="4,28" node-id="496" stroke="none" target-height="45.07" target-width="25.399994" target-x="139.35" target-y="99.26"></path></g><path d="M 151.51 97.56 C 153.40 87.87 155.95 76.50 155.33 63.66 C 153.92 34.41 133.56 19.84 126.02 15.43 C 126.02 15.43 122.79 13.64 119.51 16.19 C 68.91 55.35 108.51 124.41 108.51 124.41 C 108.51 124.41 113.95 132.39 124.04 132.10 C 136.20 131.76 139.59 125.37 139.59 125.37 C 139.59 125.37 148.30 114.06 151.51 97.56 Z" fill="#c9d2e3" fill-rule="nonzero" group-id="4" node-id="499" stroke="none" target-height="118.75" target-width="87.03999" target-x="68.91" target-y="13.64"></path><path d="M 122.78 16.85 C 99.32 41.67 93.68 71.30 113.14 107.64 C 114.10 109.44 114.44 111.31 115.24 112.83 C 107.59 110.50 102.25 105.97 102.25 105.97 L 103.48 109.43 C 109.09 116.78 115.14 118.98 120.05 119.22 C 123.62 122.56 122.20 122.37 122.20 122.37 C 112.98 124.51 103.33 130.11 94.55 79.24 C 87.46 38.17 122.78 16.85 122.78 16.85 Z" fill="#ffffff" fill-opacity="0.56" fill-rule="nonzero" group-id="4,29" node-id="503" stroke="none" target-height="113.26" target-width="36.160004" target-x="87.46" target-y="16.85"></path><path d="M 123.02 121.91 C 104.90 121.91 99.59 108.06 99.53 107.91 C 99.25 107.13 99.65 106.27 100.42 105.99 C 101.20 105.70 102.06 106.10 102.35 106.88 C 102.55 107.42 107.56 120.20 125.69 118.81 C 132.74 118.26 139.06 115.80 146.16 110.81 C 146.83 110.33 147.77 110.50 148.25 111.17 C 148.72 111.85 148.56 112.79 147.88 113.26 C 140.32 118.58 133.54 121.21 125.92 121.80 C 124.92 121.88 123.95 121.91 123.02 121.91 Z" fill="#6e6e96" fill-rule="nonzero" group-id="4" node-id="506" stroke="none" target-height="16.210007" target-width="49.47" target-x="99.25" target-y="105.7"></path><path d="M 106.67 118.57 C 106.64 118.52 106.61 118.48 106.59 118.43 C 106.59 118.43 106.61 118.48 106.67 118.57 Z M 122.53 15.63 C 129.01 18.99 133.37 30.58 135.70 44.90 C 126.96 39.51 115.35 40.80 108.03 48.55 C 99.63 57.44 100.02 71.44 108.91 79.84 C 116.90 87.39 129.04 87.83 137.51 81.36 C 136.85 94.06 134.85 105.65 131.57 112.94 C 116.38 117.95 102.25 105.97 102.25 105.97 L 103.48 109.43 C 113.54 122.60 125.00 119.27 128.79 117.65 C 128.18 118.42 127.53 119.06 126.85 119.57 C 113.65 129.28 107.42 119.83 106.67 118.57 C 120.72 143.60 137.65 127.72 137.65 127.72 C 186.73 35.27 122.53 15.63 122.53 15.63 Z" fill="#6e6e96" fill-opacity="0.18" fill-rule="nonzero" group-id="4,30" node-id="510" stroke="none" target-height="127.97001" target-width="87.1" target-x="99.63" target-y="15.63"></path><path d="M 107.48 95.54 C 90.36 58.42 109.23 35.26 109.23 35.26 C 104.53 48.23 109.95 46.31 112.24 45.08 C 110.73 46.04 109.31 47.20 108.02 48.55 C 99.63 57.44 100.03 71.44 108.91 79.84 C 112.04 82.80 115.80 84.66 119.74 85.45 C 102.45 82.78 107.48 95.54 107.48 95.54 Z" fill="#ffffff" fill-opacity="0.56" fill-rule="nonzero" group-id="4,31" node-id="515" stroke="none" target-height="60.280003" target-width="29.379997" target-x="90.36" target-y="35.26"></path><path d="M 143.13 123.73 L 151.89 104.38 C 169.70 114.17 156.57 140.09 156.57 140.09 C 156.57 140.09 158.17 119.76 153.83 115.66 C 149.50 111.56 147.77 128.50 147.77 128.50 L 143.13 123.73 Z" fill="#6e6e96" fill-opacity="0.2" fill-rule="nonzero" group-id="4,32" node-id="520" stroke="none" target-height="35.71" target-width="26.569992" target-x="143.13" target-y="104.38"></path><path d="M 93.69 140.21 C 93.59 136.70 106.72 122.09 106.72 122.09 L 96.31 99.63 L 98.61 121.26 C 98.61 121.26 97.89 127.08 93.74 129.31 C 89.58 131.54 87.65 112.18 87.65 112.18 C 83.02 134.03 93.79 143.73 93.69 140.21 Z" fill="#6e6e96" fill-opacity="0.2" fill-rule="nonzero" group-id="4,33" node-id="525" stroke="none" target-height="44.1" target-width="23.700005" target-x="83.02" target-y="99.63"></path><path d="M 139.96 63.64 C 139.96 72.52 132.76 79.72 123.88 79.72 C 115.01 79.72 107.81 72.52 107.81 63.64 C 107.81 54.77 115.01 47.57 123.88 47.57 C 132.76 47.57 139.96 54.77 139.96 63.64 Z" fill="#badbff" fill-rule="nonzero" group-id="4,34" node-id="530" stroke="none" target-height="32.15" target-width="32.15001" target-x="107.81" target-y="47.57"></path><path d="M 123.88 81.22 C 114.19 81.22 106.31 73.33 106.31 63.64 C 106.31 53.95 114.19 46.07 123.88 46.07 C 133.57 46.07 141.46 53.95 141.46 63.64 C 141.46 73.33 133.57 81.22 123.88 81.22 Z M 123.88 49.07 C 115.85 49.07 109.31 55.61 109.31 63.64 C 109.31 71.68 115.85 78.22 123.88 78.22 C 131.92 78.22 138.46 71.68 138.46 63.64 C 138.46 55.61 131.92 49.07 123.88 49.07 Z" fill="#6e6e96" fill-rule="nonzero" group-id="4,34" node-id="532" stroke="none" target-height="35.15" target-width="35.15001" target-x="106.31" target-y="46.07"></path><path d="M 139.12 62.97 C 139.34 71.02 133.00 77.72 124.95 77.95 C 119.69 78.10 115.00 75.44 112.32 71.32 C 114.65 74.31 118.32 76.19 122.41 76.08 C 129.23 75.88 134.60 70.20 134.41 63.38 C 134.21 56.56 128.53 51.19 121.71 51.38 C 116.65 51.52 112.40 54.68 110.61 59.09 C 112.40 53.28 117.72 48.98 124.13 48.80 C 132.18 48.58 138.89 54.92 139.12 62.97 Z" fill="#6e6e96" fill-opacity="0.2" fill-rule="nonzero" group-id="4,35" node-id="537" stroke="none" target-height="29.519997" target-width="28.729996" target-x="110.61" target-y="48.58"></path><path d="M 116.26 57.63 C 113.68 58.07 112.10 61.41 112.72 65.08 C 113.34 68.75 115.94 71.37 118.52 70.94 C 121.09 70.50 121.27 67.21 120.65 63.53 C 120.03 59.86 118.84 57.20 116.26 57.63 Z" fill="#ffffff" fill-opacity="0.42" fill-rule="nonzero" group-id="4,36" node-id="542" stroke="none" target-height="14.170002" target-width="9.169998" target-x="112.1" target-y="57.2"></path><path d="M 129.58 64.29 L 128.80 64.49 L 128.01 64.36 L 127.30 63.93 L 126.74 63.21 L 126.48 62.35 L 126.53 61.52 L 126.88 60.80 L 127.49 60.28 L 128.27 60.07 L 129.06 60.21 L 129.77 60.63 L 130.32 61.35 L 130.59 62.22 L 130.54 63.04 L 130.19 63.77 L 129.58 64.29 Z" fill="#ffffff" fill-opacity="0.25" fill-rule="nonzero" group-id="4,37" node-id="547" stroke="none" target-height="4.419998" target-width="4.109993" target-x="126.48" target-y="60.07"></path><path d="M 123.53 134.40 C 113.11 134.39 107.52 126.38 107.29 126.04 C 107.27 126.01 107.25 125.97 107.23 125.94 C 106.82 125.22 97.15 108.18 93.58 86.01 C 88.81 56.44 97.46 32.15 118.61 15.79 C 120.05 14.67 121.65 14.11 123.37 14.11 C 125.27 14.11 126.62 14.82 126.77 14.90 C 135.36 19.93 155.43 34.77 156.85 64.37 C 157.42 76.26 155.35 86.77 153.51 96.04 L 153.00 98.64 C 149.87 114.73 141.74 125.83 140.87 126.98 C 140.28 127.98 136.19 134.05 124.10 134.39 C 123.91 134.39 123.72 134.40 123.53 134.40 Z M 109.80 124.39 C 110.22 124.97 115.27 131.60 124.02 131.39 C 135.18 131.07 138.26 125.50 138.29 125.45 C 138.33 125.38 138.38 125.31 138.43 125.24 C 138.51 125.13 146.96 113.98 150.06 98.06 L 150.57 95.46 C 152.37 86.36 154.41 76.04 153.85 64.52 C 152.50 36.38 133.43 22.27 125.29 17.51 C 125.29 17.51 125.29 17.51 125.29 17.51 C 125.28 17.51 124.48 17.11 123.37 17.11 C 122.33 17.11 121.35 17.46 120.45 18.16 C 99.93 34.04 91.89 56.70 96.54 85.53 C 99.92 106.53 109.17 123.27 109.80 124.39 Z" fill="#6e6e96" fill-rule="nonzero" group-id="4" node-id="550" stroke="none" target-height="120.28999" target-width="68.61" target-x="88.81" target-y="14.11"></path><path d="M 190.12 199.28 C 184.81 199.28 180.01 201.68 176.49 205.57 C 171.88 198.85 164.70 194.50 156.61 194.50 C 147.05 194.50 138.77 200.57 134.51 209.47 C 121.77 171.87 139.62 133.39 139.62 133.39 C 120.49 157.33 109.70 134.96 109.01 133.47 C 109.70 134.99 126.72 173.00 113.90 210.00 C 109.72 200.81 101.30 194.50 91.55 194.50 C 83.46 194.50 76.28 198.85 71.68 205.57 C 68.15 201.68 63.35 199.28 58.05 199.28 C 47.30 199.28 38.58 209.12 38.49 221.29 L 209.68 221.29 C 209.59 209.12 200.87 199.28 190.12 199.28 Z" fill="#ffffff" fill-rule="nonzero" group-id="4" node-id="552" stroke="none" target-height="87.899994" target-width="171.18999" target-x="38.49" target-y="133.39"></path><path d="M 113.49 140.29 C 113.49 140.29 118.49 156.79 118.49 164.29 C 118.49 171.79 128.86 173.25 130.27 164.29 C 131.67 155.33 135.37 142.27 139.62 133.29 C 139.62 133.29 129.01 155.81 113.49 140.29 Z" fill="#fff9c7" fill-rule="nonzero" group-id="4" node-id="554" stroke="none" target-height="39.960007" target-width="26.129997" target-x="113.49" target-y="133.29"></path><path d="M 109.01 133.36 C 109.01 133.36 122.25 182.79 139.62 133.29 C 139.62 133.29 119.40 156.64 109.01 133.36 Z" fill="#fff27f" fill-rule="nonzero" group-id="4" node-id="556" stroke="none" target-height="49.5" target-width="30.609993" target-x="109.01" target-y="133.29"></path><path d="M 75.51 213.15 C 75.09 213.15 74.67 212.97 74.37 212.63 L 70.54 208.17 C 70.00 207.54 70.07 206.60 70.70 206.06 C 71.32 205.52 72.27 205.59 72.81 206.22 L 76.65 210.67 C 77.19 211.30 77.12 212.25 76.49 212.78 C 76.21 213.03 75.86 213.15 75.51 213.15 Z" fill="#6e6e96" fill-rule="nonzero" group-id="4" node-id="558" stroke="none" target-height="7.6299896" target-width="7.1900024" target-x="70" target-y="205.52"></path><path d="M 171.06 215.00 C 170.71 215.00 170.36 214.88 170.08 214.64 C 169.45 214.10 169.38 213.15 169.92 212.52 L 175.35 206.22 C 175.90 205.59 176.84 205.52 177.47 206.06 C 178.10 206.60 178.17 207.54 177.63 208.17 L 172.19 214.48 C 171.90 214.82 171.48 215.00 171.06 215.00 Z" fill="#6e6e96" fill-rule="nonzero" group-id="4" node-id="560" stroke="none" target-height="9.479996" target-width="8.789993" target-x="169.38" target-y="205.52"></path><path d="M 176.49 208.69 C 176.13 208.69 175.78 208.57 175.50 208.32 C 174.88 207.77 174.82 206.82 175.37 206.20 C 179.34 201.72 184.57 199.25 190.12 199.25 C 190.95 199.25 191.62 199.93 191.62 200.75 C 191.62 201.58 190.95 202.25 190.12 202.25 C 185.44 202.25 181.00 204.36 177.61 208.19 C 177.32 208.52 176.90 208.69 176.49 208.69 Z" fill="#6e6e96" fill-rule="nonzero" group-id="4" node-id="562" stroke="none" target-height="9.440002" target-width="16.799988" target-x="174.82" target-y="199.25"></path><path d="M 113.90 213.23 C 113.31 213.23 112.77 212.88 112.53 212.34 C 108.43 203.10 100.39 197.37 91.55 197.37 C 84.25 197.37 77.46 201.25 72.92 208.03 C 72.66 208.42 72.24 208.66 71.78 208.69 C 71.32 208.72 70.86 208.54 70.55 208.19 C 67.16 204.36 62.72 202.25 58.05 202.25 C 54.54 202.25 51.13 203.44 48.20 205.69 C 47.55 206.19 46.61 206.07 46.10 205.41 C 45.60 204.75 45.72 203.81 46.38 203.30 C 49.84 200.66 53.87 199.25 58.05 199.25 C 63.01 199.25 67.72 201.23 71.50 204.85 C 76.58 198.16 83.80 194.37 91.55 194.37 C 100.47 194.37 108.63 199.43 113.56 207.80 C 124.08 171.65 108.33 135.55 107.64 133.98 C 107.30 133.23 107.64 132.34 108.40 132.00 C 109.15 131.66 110.04 132.00 110.38 132.76 C 110.55 133.14 114.66 142.13 121.76 142.99 C 126.84 143.60 132.46 140.03 138.43 132.37 C 138.91 131.75 139.78 131.60 140.44 132.03 C 141.09 132.46 141.31 133.31 140.94 134.00 C 140.74 134.37 122.02 169.88 135.83 206.24 C 140.47 198.46 147.60 194.37 156.61 194.37 C 161.60 194.37 166.47 195.97 170.69 199.00 C 171.36 199.49 171.51 200.43 171.03 201.10 C 170.54 201.77 169.61 201.92 168.94 201.44 C 165.23 198.78 160.97 197.37 156.61 197.37 C 147.65 197.37 141.06 201.76 137.01 210.43 C 136.76 210.96 136.24 211.32 135.63 211.29 C 135.04 211.28 134.51 210.93 134.27 210.38 C 122.21 182.28 129.67 154.19 134.74 140.75 C 130.18 144.74 125.71 146.49 121.40 145.97 C 118.45 145.61 115.96 144.22 113.94 142.50 C 118.47 156.83 124.60 184.79 115.32 212.21 C 115.12 212.79 114.58 213.20 113.97 213.23 C 113.94 213.23 113.92 213.23 113.90 213.23 Z" fill="#6e6e96" fill-rule="nonzero" group-id="4" node-id="564" stroke="none" target-height="81.62999" target-width="125.909996" target-x="45.6" target-y="131.6"></path><path d="M 110.24 222.95 L 139.74 222.95 L 139.74 228.04 L 110.24 228.04 Z" fill="#d0d2db" fill-rule="nonzero" group-id="4,38" node-id="568" stroke="none" target-height="5.0899963" target-width="29.500008" target-x="110.24" target-y="222.95"></path><path d="M 139.74 229.54 L 110.24 229.54 C 109.41 229.54 108.74 228.87 108.74 228.04 L 108.74 222.95 C 108.74 222.13 109.41 221.45 110.24 221.45 L 139.74 221.45 C 140.57 221.45 141.24 222.13 141.24 222.95 L 141.24 228.04 C 141.24 228.87 140.57 229.54 139.74 229.54 Z M 111.74 226.54 L 138.24 226.54 L 138.24 224.45 L 111.74 224.45 L 111.74 226.54 Z" fill="#6e6e96" fill-rule="nonzero" group-id="4,38" node-id="570" stroke="none" target-height="8.089996" target-width="32.500008" target-x="108.74" target-y="221.45"></path></g></svg>